<svg xmlns="http://www.w3.org/2000/svg" width="1024" height="1024" viewBox="0 0 1024 1024">
  <defs>
    <linearGradient id="bgGrad" x1="0" y1="0" x2="0" y2="1">
      <stop offset="0%" stop-color="#6B7C8E"/>
      <stop offset="55%" stop-color="#57697B"/>
      <stop offset="100%" stop-color="#485867"/>
    </linearGradient>
    <radialGradient id="sheen" cx="30%" cy="18%" r="75%">
      <stop offset="0%" stop-color="#FFFFFF" stop-opacity="0.16"/>
      <stop offset="45%" stop-color="#FFFFFF" stop-opacity="0.04"/>
      <stop offset="100%" stop-color="#FFFFFF" stop-opacity="0"/>
    </radialGradient>
    <linearGradient id="barGrad" x1="0" y1="0" x2="0" y2="1">
      <stop offset="0%" stop-color="#8BF0DF"/>
      <stop offset="100%" stop-color="#52D9C4"/>
    </linearGradient>
    <linearGradient id="innerShadow" x1="0" y1="0" x2="0" y2="1">
      <stop offset="0%" stop-color="#000000" stop-opacity="0"/>
      <stop offset="100%" stop-color="#000000" stop-opacity="0.10"/>
    </linearGradient>
  </defs>

  <path d="M 1010.00,512.00 L 1009.93,627.98 L 1009.73,665.02 L 1009.39,691.92 L 1008.91,713.80 L 1008.29,732.55 L 1007.54,749.12 L 1006.65,764.05 L 1005.62,777.69 L 1004.45,790.29 L 1003.14,802.02 L 1001.69,813.00 L 1000.10,823.33 L 998.37,833.09 L 996.50,842.34 L 994.48,851.13 L 992.31,859.50 L 990.00,867.49 L 987.53,875.12 L 984.92,882.42 L 982.16,889.41 L 979.24,896.12 L 976.16,902.55 L 972.92,908.72 L 969.52,914.64 L 965.96,920.33 L 962.23,925.79 L 958.32,931.03 L 954.24,936.07 L 949.98,940.90 L 945.53,945.53 L 940.90,949.98 L 936.07,954.24 L 931.03,958.32 L 925.79,962.23 L 920.33,965.96 L 914.64,969.52 L 908.72,972.92 L 902.55,976.16 L 896.12,979.24 L 889.41,982.16 L 882.42,984.92 L 875.12,987.53 L 867.49,990.00 L 859.50,992.31 L 851.13,994.48 L 842.34,996.50 L 833.09,998.37 L 823.33,1000.10 L 813.00,1001.69 L 802.02,1003.14 L 790.29,1004.45 L 777.69,1005.62 L 764.05,1006.65 L 749.12,1007.54 L 732.55,1008.29 L 713.80,1008.91 L 691.92,1009.39 L 665.02,1009.73 L 627.98,1009.93 L 512.00,1010.00 L 396.02,1009.93 L 358.98,1009.73 L 332.08,1009.39 L 310.20,1008.91 L 291.45,1008.29 L 274.88,1007.54 L 259.95,1006.65 L 246.31,1005.62 L 233.71,1004.45 L 221.98,1003.14 L 211.00,1001.69 L 200.67,1000.10 L 190.91,998.37 L 181.66,996.50 L 172.87,994.48 L 164.50,992.31 L 156.51,990.00 L 148.88,987.53 L 141.58,984.92 L 134.59,982.16 L 127.88,979.24 L 121.45,976.16 L 115.28,972.92 L 109.36,969.52 L 103.67,965.96 L 98.21,962.23 L 92.97,958.32 L 87.93,954.24 L 83.10,949.98 L 78.47,945.53 L 74.02,940.90 L 69.76,936.07 L 65.68,931.03 L 61.77,925.79 L 58.04,920.33 L 54.48,914.64 L 51.08,908.72 L 47.84,902.55 L 44.76,896.12 L 41.84,889.41 L 39.08,882.42 L 36.47,875.12 L 34.00,867.49 L 31.69,859.50 L 29.52,851.13 L 27.50,842.34 L 25.63,833.09 L 23.90,823.33 L 22.31,813.00 L 20.86,802.02 L 19.55,790.29 L 18.38,777.69 L 17.35,764.05 L 16.46,749.12 L 15.71,732.55 L 15.09,713.80 L 14.61,691.92 L 14.27,665.02 L 14.07,627.98 L 14.00,512.00 L 14.07,396.02 L 14.27,358.98 L 14.61,332.08 L 15.09,310.20 L 15.71,291.45 L 16.46,274.88 L 17.35,259.95 L 18.38,246.31 L 19.55,233.71 L 20.86,221.98 L 22.31,211.00 L 23.90,200.67 L 25.63,190.91 L 27.50,181.66 L 29.52,172.87 L 31.69,164.50 L 34.00,156.51 L 36.47,148.88 L 39.08,141.58 L 41.84,134.59 L 44.76,127.88 L 47.84,121.45 L 51.08,115.28 L 54.48,109.36 L 58.04,103.67 L 61.77,98.21 L 65.68,92.97 L 69.76,87.93 L 74.02,83.10 L 78.47,78.47 L 83.10,74.02 L 87.93,69.76 L 92.97,65.68 L 98.21,61.77 L 103.67,58.04 L 109.36,54.48 L 115.28,51.08 L 121.45,47.84 L 127.88,44.76 L 134.59,41.84 L 141.58,39.08 L 148.88,36.47 L 156.51,34.00 L 164.50,31.69 L 172.87,29.52 L 181.66,27.50 L 190.91,25.63 L 200.67,23.90 L 211.00,22.31 L 221.98,20.86 L 233.71,19.55 L 246.31,18.38 L 259.95,17.35 L 274.88,16.46 L 291.45,15.71 L 310.20,15.09 L 332.08,14.61 L 358.98,14.27 L 396.02,14.07 L 512.00,14.00 L 627.98,14.07 L 665.02,14.27 L 691.92,14.61 L 713.80,15.09 L 732.55,15.71 L 749.12,16.46 L 764.05,17.35 L 777.69,18.38 L 790.29,19.55 L 802.02,20.86 L 813.00,22.31 L 823.33,23.90 L 833.09,25.63 L 842.34,27.50 L 851.13,29.52 L 859.50,31.69 L 867.49,34.00 L 875.12,36.47 L 882.42,39.08 L 889.41,41.84 L 896.12,44.76 L 902.55,47.84 L 908.72,51.08 L 914.64,54.48 L 920.33,58.04 L 925.79,61.77 L 931.03,65.68 L 936.07,69.76 L 940.90,74.02 L 945.53,78.47 L 949.98,83.10 L 954.24,87.93 L 958.32,92.97 L 962.23,98.21 L 965.96,103.67 L 969.52,109.36 L 972.92,115.28 L 976.16,121.45 L 979.24,127.88 L 982.16,134.59 L 984.92,141.58 L 987.53,148.88 L 990.00,156.51 L 992.31,164.50 L 994.48,172.87 L 996.50,181.66 L 998.37,190.91 L 1000.10,200.67 L 1001.69,211.00 L 1003.14,221.98 L 1004.45,233.71 L 1005.62,246.31 L 1006.65,259.95 L 1007.54,274.88 L 1008.29,291.45 L 1008.91,310.20 L 1009.39,332.08 L 1009.73,358.98 L 1009.93,396.02 Z" fill="url(#bgGrad)"/>
  <path d="M 1010.00,512.00 L 1009.93,627.98 L 1009.73,665.02 L 1009.39,691.92 L 1008.91,713.80 L 1008.29,732.55 L 1007.54,749.12 L 1006.65,764.05 L 1005.62,777.69 L 1004.45,790.29 L 1003.14,802.02 L 1001.69,813.00 L 1000.10,823.33 L 998.37,833.09 L 996.50,842.34 L 994.48,851.13 L 992.31,859.50 L 990.00,867.49 L 987.53,875.12 L 984.92,882.42 L 982.16,889.41 L 979.24,896.12 L 976.16,902.55 L 972.92,908.72 L 969.52,914.64 L 965.96,920.33 L 962.23,925.79 L 958.32,931.03 L 954.24,936.07 L 949.98,940.90 L 945.53,945.53 L 940.90,949.98 L 936.07,954.24 L 931.03,958.32 L 925.79,962.23 L 920.33,965.96 L 914.64,969.52 L 908.72,972.92 L 902.55,976.16 L 896.12,979.24 L 889.41,982.16 L 882.42,984.92 L 875.12,987.53 L 867.49,990.00 L 859.50,992.31 L 851.13,994.48 L 842.34,996.50 L 833.09,998.37 L 823.33,1000.10 L 813.00,1001.69 L 802.02,1003.14 L 790.29,1004.45 L 777.69,1005.62 L 764.05,1006.65 L 749.12,1007.54 L 732.55,1008.29 L 713.80,1008.91 L 691.92,1009.39 L 665.02,1009.73 L 627.98,1009.93 L 512.00,1010.00 L 396.02,1009.93 L 358.98,1009.73 L 332.08,1009.39 L 310.20,1008.91 L 291.45,1008.29 L 274.88,1007.54 L 259.95,1006.65 L 246.31,1005.62 L 233.71,1004.45 L 221.98,1003.14 L 211.00,1001.69 L 200.67,1000.10 L 190.91,998.37 L 181.66,996.50 L 172.87,994.48 L 164.50,992.31 L 156.51,990.00 L 148.88,987.53 L 141.58,984.92 L 134.59,982.16 L 127.88,979.24 L 121.45,976.16 L 115.28,972.92 L 109.36,969.52 L 103.67,965.96 L 98.21,962.23 L 92.97,958.32 L 87.93,954.24 L 83.10,949.98 L 78.47,945.53 L 74.02,940.90 L 69.76,936.07 L 65.68,931.03 L 61.77,925.79 L 58.04,920.33 L 54.48,914.64 L 51.08,908.72 L 47.84,902.55 L 44.76,896.12 L 41.84,889.41 L 39.08,882.42 L 36.47,875.12 L 34.00,867.49 L 31.69,859.50 L 29.52,851.13 L 27.50,842.34 L 25.63,833.09 L 23.90,823.33 L 22.31,813.00 L 20.86,802.02 L 19.55,790.29 L 18.38,777.69 L 17.35,764.05 L 16.46,749.12 L 15.71,732.55 L 15.09,713.80 L 14.61,691.92 L 14.27,665.02 L 14.07,627.98 L 14.00,512.00 L 14.07,396.02 L 14.27,358.98 L 14.61,332.08 L 15.09,310.20 L 15.71,291.45 L 16.46,274.88 L 17.35,259.95 L 18.38,246.31 L 19.55,233.71 L 20.86,221.98 L 22.31,211.00 L 23.90,200.67 L 25.63,190.91 L 27.50,181.66 L 29.52,172.87 L 31.69,164.50 L 34.00,156.51 L 36.47,148.88 L 39.08,141.58 L 41.84,134.59 L 44.76,127.88 L 47.84,121.45 L 51.08,115.28 L 54.48,109.36 L 58.04,103.67 L 61.77,98.21 L 65.68,92.97 L 69.76,87.93 L 74.02,83.10 L 78.47,78.47 L 83.10,74.02 L 87.93,69.76 L 92.97,65.68 L 98.21,61.77 L 103.67,58.04 L 109.36,54.48 L 115.28,51.08 L 121.45,47.84 L 127.88,44.76 L 134.59,41.84 L 141.58,39.08 L 148.88,36.47 L 156.51,34.00 L 164.50,31.69 L 172.87,29.52 L 181.66,27.50 L 190.91,25.63 L 200.67,23.90 L 211.00,22.31 L 221.98,20.86 L 233.71,19.55 L 246.31,18.38 L 259.95,17.35 L 274.88,16.46 L 291.45,15.71 L 310.20,15.09 L 332.08,14.61 L 358.98,14.27 L 396.02,14.07 L 512.00,14.00 L 627.98,14.07 L 665.02,14.27 L 691.92,14.61 L 713.80,15.09 L 732.55,15.71 L 749.12,16.46 L 764.05,17.35 L 777.69,18.38 L 790.29,19.55 L 802.02,20.86 L 813.00,22.31 L 823.33,23.90 L 833.09,25.63 L 842.34,27.50 L 851.13,29.52 L 859.50,31.69 L 867.49,34.00 L 875.12,36.47 L 882.42,39.08 L 889.41,41.84 L 896.12,44.76 L 902.55,47.84 L 908.72,51.08 L 914.64,54.48 L 920.33,58.04 L 925.79,61.77 L 931.03,65.68 L 936.07,69.76 L 940.90,74.02 L 945.53,78.47 L 949.98,83.10 L 954.24,87.93 L 958.32,92.97 L 962.23,98.21 L 965.96,103.67 L 969.52,109.36 L 972.92,115.28 L 976.16,121.45 L 979.24,127.88 L 982.16,134.59 L 984.92,141.58 L 987.53,148.88 L 990.00,156.51 L 992.31,164.50 L 994.48,172.87 L 996.50,181.66 L 998.37,190.91 L 1000.10,200.67 L 1001.69,211.00 L 1003.14,221.98 L 1004.45,233.71 L 1005.62,246.31 L 1006.65,259.95 L 1007.54,274.88 L 1008.29,291.45 L 1008.91,310.20 L 1009.39,332.08 L 1009.73,358.98 L 1009.93,396.02 Z" fill="url(#sheen)"/>
  <path d="M 1010.00,512.00 L 1009.93,627.98 L 1009.73,665.02 L 1009.39,691.92 L 1008.91,713.80 L 1008.29,732.55 L 1007.54,749.12 L 1006.65,764.05 L 1005.62,777.69 L 1004.45,790.29 L 1003.14,802.02 L 1001.69,813.00 L 1000.10,823.33 L 998.37,833.09 L 996.50,842.34 L 994.48,851.13 L 992.31,859.50 L 990.00,867.49 L 987.53,875.12 L 984.92,882.42 L 982.16,889.41 L 979.24,896.12 L 976.16,902.55 L 972.92,908.72 L 969.52,914.64 L 965.96,920.33 L 962.23,925.79 L 958.32,931.03 L 954.24,936.07 L 949.98,940.90 L 945.53,945.53 L 940.90,949.98 L 936.07,954.24 L 931.03,958.32 L 925.79,962.23 L 920.33,965.96 L 914.64,969.52 L 908.72,972.92 L 902.55,976.16 L 896.12,979.24 L 889.41,982.16 L 882.42,984.92 L 875.12,987.53 L 867.49,990.00 L 859.50,992.31 L 851.13,994.48 L 842.34,996.50 L 833.09,998.37 L 823.33,1000.10 L 813.00,1001.69 L 802.02,1003.14 L 790.29,1004.45 L 777.69,1005.62 L 764.05,1006.65 L 749.12,1007.54 L 732.55,1008.29 L 713.80,1008.91 L 691.92,1009.39 L 665.02,1009.73 L 627.98,1009.93 L 512.00,1010.00 L 396.02,1009.93 L 358.98,1009.73 L 332.08,1009.39 L 310.20,1008.91 L 291.45,1008.29 L 274.88,1007.54 L 259.95,1006.65 L 246.31,1005.62 L 233.71,1004.45 L 221.98,1003.14 L 211.00,1001.69 L 200.67,1000.10 L 190.91,998.37 L 181.66,996.50 L 172.87,994.48 L 164.50,992.31 L 156.51,990.00 L 148.88,987.53 L 141.58,984.92 L 134.59,982.16 L 127.88,979.24 L 121.45,976.16 L 115.28,972.92 L 109.36,969.52 L 103.67,965.96 L 98.21,962.23 L 92.97,958.32 L 87.93,954.24 L 83.10,949.98 L 78.47,945.53 L 74.02,940.90 L 69.76,936.07 L 65.68,931.03 L 61.77,925.79 L 58.04,920.33 L 54.48,914.64 L 51.08,908.72 L 47.84,902.55 L 44.76,896.12 L 41.84,889.41 L 39.08,882.42 L 36.47,875.12 L 34.00,867.49 L 31.69,859.50 L 29.52,851.13 L 27.50,842.34 L 25.63,833.09 L 23.90,823.33 L 22.31,813.00 L 20.86,802.02 L 19.55,790.29 L 18.38,777.69 L 17.35,764.05 L 16.46,749.12 L 15.71,732.55 L 15.09,713.80 L 14.61,691.92 L 14.27,665.02 L 14.07,627.98 L 14.00,512.00 L 14.07,396.02 L 14.27,358.98 L 14.61,332.08 L 15.09,310.20 L 15.71,291.45 L 16.46,274.88 L 17.35,259.95 L 18.38,246.31 L 19.55,233.71 L 20.86,221.98 L 22.31,211.00 L 23.90,200.67 L 25.63,190.91 L 27.50,181.66 L 29.52,172.87 L 31.69,164.50 L 34.00,156.51 L 36.47,148.88 L 39.08,141.58 L 41.84,134.59 L 44.76,127.88 L 47.84,121.45 L 51.08,115.28 L 54.48,109.36 L 58.04,103.67 L 61.77,98.21 L 65.68,92.97 L 69.76,87.93 L 74.02,83.10 L 78.47,78.47 L 83.10,74.02 L 87.93,69.76 L 92.97,65.68 L 98.21,61.77 L 103.67,58.04 L 109.36,54.48 L 115.28,51.08 L 121.45,47.84 L 127.88,44.76 L 134.59,41.84 L 141.58,39.08 L 148.88,36.47 L 156.51,34.00 L 164.50,31.69 L 172.87,29.52 L 181.66,27.50 L 190.91,25.63 L 200.67,23.90 L 211.00,22.31 L 221.98,20.86 L 233.71,19.55 L 246.31,18.38 L 259.95,17.35 L 274.88,16.46 L 291.45,15.71 L 310.20,15.09 L 332.08,14.61 L 358.98,14.27 L 396.02,14.07 L 512.00,14.00 L 627.98,14.07 L 665.02,14.27 L 691.92,14.61 L 713.80,15.09 L 732.55,15.71 L 749.12,16.46 L 764.05,17.35 L 777.69,18.38 L 790.29,19.55 L 802.02,20.86 L 813.00,22.31 L 823.33,23.90 L 833.09,25.63 L 842.34,27.50 L 851.13,29.52 L 859.50,31.69 L 867.49,34.00 L 875.12,36.47 L 882.42,39.08 L 889.41,41.84 L 896.12,44.76 L 902.55,47.84 L 908.72,51.08 L 914.64,54.48 L 920.33,58.04 L 925.79,61.77 L 931.03,65.68 L 936.07,69.76 L 940.90,74.02 L 945.53,78.47 L 949.98,83.10 L 954.24,87.93 L 958.32,92.97 L 962.23,98.21 L 965.96,103.67 L 969.52,109.36 L 972.92,115.28 L 976.16,121.45 L 979.24,127.88 L 982.16,134.59 L 984.92,141.58 L 987.53,148.88 L 990.00,156.51 L 992.31,164.50 L 994.48,172.87 L 996.50,181.66 L 998.37,190.91 L 1000.10,200.67 L 1001.69,211.00 L 1003.14,221.98 L 1004.45,233.71 L 1005.62,246.31 L 1006.65,259.95 L 1007.54,274.88 L 1008.29,291.45 L 1008.91,310.20 L 1009.39,332.08 L 1009.73,358.98 L 1009.93,396.02 Z" fill="url(#innerShadow)"/>

  <g>
    <rect x="144.00" y="477.00" width="34.00" height="70.00" rx="17.00" ry="17.00" fill="url(#barGrad)"/><rect x="198.00" y="437.00" width="34.00" height="150.00" rx="17.00" ry="17.00" fill="url(#barGrad)"/><rect x="252.00" y="407.00" width="34.00" height="210.00" rx="17.00" ry="17.00" fill="url(#barGrad)"/><rect x="306.00" y="382.00" width="34.00" height="260.00" rx="17.00" ry="17.00" fill="url(#barGrad)"/><rect x="360.00" y="447.00" width="34.00" height="130.00" rx="17.00" ry="17.00" fill="url(#barGrad)"/><rect x="414.00" y="462.00" width="34.00" height="100.00" rx="17.00" ry="17.00" fill="url(#barGrad)"/><rect x="468.00" y="442.00" width="34.00" height="140.00" rx="17.00" ry="17.00" fill="url(#barGrad)"/><rect x="522.00" y="422.00" width="34.00" height="180.00" rx="17.00" ry="17.00" fill="url(#barGrad)"/><rect x="576.00" y="452.00" width="34.00" height="120.00" rx="17.00" ry="17.00" fill="url(#barGrad)"/><rect x="630.00" y="472.00" width="34.00" height="80.00" rx="17.00" ry="17.00" fill="url(#barGrad)"/><rect x="684.00" y="484.50" width="34.00" height="55.00" rx="17.00" ry="17.00" fill="url(#barGrad)"/><circle cx="755.00" cy="512.00" r="17.00" fill="url(#barGrad)"/><circle cx="809.00" cy="512.00" r="10.00" fill="url(#barGrad)"/><circle cx="863.00" cy="512.00" r="6.00" fill="url(#barGrad)"/>
  </g>
</svg>